<mxfile host="app.diagrams.net" agent="Mozilla/5.0 (Windows NT 10.0; Win64; x64) AppleWebKit/537.36 (KHTML, like Gecko) Chrome/130.0.0.0 Safari/537.36" scale="4" border="0" version="24.8.3">
  <diagram name="PÃ¡gina-1" id="-V9DdUfizp40w98-WUwG">
    <mxGraphModel grid="1" page="1" gridSize="10" guides="1" tooltips="1" connect="1" arrows="1" fold="1" pageScale="0.75" pageWidth="827" pageHeight="1169" math="0" shadow="0">
      <root>
        <mxCell id="0" />
        <mxCell id="1" parent="0" />
        <mxCell id="2" value="" style="group" vertex="1" connectable="0" parent="1">
          <mxGeometry x="-1110" y="-91" width="1640" height="794.25" as="geometry" />
        </mxCell>
        <mxCell id="3" value="" style="rounded=0;whiteSpace=wrap;html=1;" vertex="1" parent="2">
          <mxGeometry x="497.25" y="54.25" width="1142.75" height="740" as="geometry" />
        </mxCell>
        <mxCell id="4" style="edgeStyle=orthogonalEdgeStyle;rounded=0;orthogonalLoop=1;jettySize=auto;html=1;exitX=0.5;exitY=1;exitDx=0;exitDy=0;fontFamily=Helvetica;fontSize=12;fontColor=default;strokeColor=default;endArrow=none;endFill=0;shadow=1;strokeWidth=1;" edge="1" parent="2">
          <mxGeometry relative="1" as="geometry">
            <mxPoint x="1090" y="294" as="sourcePoint" />
            <mxPoint x="908.9833333333336" y="505.5" as="targetPoint" />
            <Array as="points">
              <mxPoint x="1090" y="407" />
              <mxPoint x="909" y="407" />
            </Array>
          </mxGeometry>
        </mxCell>
        <mxCell id="5" value="" style="rounded=0;whiteSpace=wrap;html=1;dashed=1;strokeWidth=2;strokeColor=#575757;" vertex="1" parent="2">
          <mxGeometry x="570" y="105" width="1040" height="190" as="geometry" />
        </mxCell>
        <mxCell id="6" value="&lt;h1 style=&quot;&quot;&gt;&lt;font style=&quot;font-size: 24px;&quot;&gt;&lt;i&gt;Security Test Lab - IaC&lt;/i&gt;&lt;/font&gt;&lt;/h1&gt;" style="text;strokeColor=none;fillColor=none;html=1;fontSize=40;fontStyle=1;verticalAlign=middle;align=left;fontFamily=Helvetica;fontColor=default;" vertex="1" parent="2">
          <mxGeometry x="497.25" width="440" height="30" as="geometry" />
        </mxCell>
        <mxCell id="7" value="&lt;p style=&quot;line-height: 100%;&quot;&gt;&lt;font style=&quot;font-size: 18px;&quot;&gt;network_ZTNA&lt;/font&gt;&lt;/p&gt;" style="text;strokeColor=none;fillColor=none;html=1;fontSize=22;fontStyle=1;verticalAlign=middle;align=left;strokeWidth=0;rotation=0;flipH=0;flipV=1;" vertex="1" parent="2">
          <mxGeometry x="570" y="69" width="180" height="40" as="geometry" />
        </mxCell>
        <mxCell id="8" value="" style="group" connectable="0" vertex="1" parent="2">
          <mxGeometry x="550" y="380" width="70" height="88.5" as="geometry" />
        </mxCell>
        <mxCell id="9" value="" style="pointerEvents=1;shadow=0;dashed=0;html=1;strokeColor=none;fillColor=#666666;labelPosition=center;verticalLabelPosition=bottom;verticalAlign=top;outlineConnect=0;align=center;shape=mxgraph.office.concepts.firewall;" vertex="1" parent="8">
          <mxGeometry x="5.833333333333334" width="58.333333333333336" height="58.5" as="geometry" />
        </mxCell>
        <mxCell id="10" value="&lt;font style=&quot;font-size: 19px;&quot;&gt;Firewall&lt;/font&gt;" style="text;html=1;strokeColor=none;fillColor=none;align=center;verticalAlign=middle;whiteSpace=wrap;rounded=0;fontStyle=1" vertex="1" parent="8">
          <mxGeometry y="58.5" width="70" height="30" as="geometry" />
        </mxCell>
        <mxCell id="11" value="" style="swimlane;startSize=0;points=[[0,0,0,0,0],[0,0.25,0,0,0],[0,0.5,0,0,0],[0,0.75,0,0,0],[0,1,0,0,0],[0.25,0,0,0,0],[0.25,1,0,0,0],[0.5,0,0,0,0],[0.5,1,0,0,0],[0.75,0,0,0,0],[0.75,1,0,0,0],[1,0,0,0,0],[1,0.25,0,0,0],[1,0.5,0,0,0],[1,0.75,0,0,0],[1,1,0,0,0]];" vertex="1" parent="2">
          <mxGeometry x="592" y="140" width="160" height="120" as="geometry">
            <mxRectangle x="-358" y="240" width="50" height="40" as="alternateBounds" />
          </mxGeometry>
        </mxCell>
        <mxCell id="12" value="&lt;font style=&quot;font-size: 24px;&quot;&gt;&lt;b style=&quot;&quot;&gt;GLPI&lt;/b&gt;&lt;/font&gt;" style="text;html=1;align=center;verticalAlign=middle;resizable=0;points=[];autosize=1;strokeColor=none;fillColor=none;" vertex="1" parent="11">
          <mxGeometry x="40" y="40" width="80" height="40" as="geometry" />
        </mxCell>
        <mxCell id="13" value="" style="sketch=0;outlineConnect=0;fontColor=#232F3E;gradientColor=none;fillColor=#585450;strokeColor=none;dashed=0;verticalLabelPosition=bottom;verticalAlign=top;align=center;html=1;fontSize=12;fontStyle=0;aspect=fixed;pointerEvents=1;shape=mxgraph.aws4.container_1;" vertex="1" parent="11">
          <mxGeometry x="56" y="80" width="48" height="31" as="geometry" />
        </mxCell>
        <mxCell id="14" value="" style="swimlane;startSize=0;" vertex="1" parent="2">
          <mxGeometry x="760" y="140" width="160" height="120" as="geometry">
            <mxRectangle x="-770" y="140" width="50" height="40" as="alternateBounds" />
          </mxGeometry>
        </mxCell>
        <mxCell id="15" value="&lt;font style=&quot;font-size: 24px;&quot;&gt;&lt;b style=&quot;&quot;&gt;MariaDB&lt;/b&gt;&lt;/font&gt;" style="text;html=1;align=center;verticalAlign=middle;resizable=0;points=[];autosize=1;strokeColor=none;fillColor=none;" vertex="1" parent="14">
          <mxGeometry x="20" y="40" width="120" height="40" as="geometry" />
        </mxCell>
        <mxCell id="16" value="" style="swimlane;startSize=0;" vertex="1" parent="2">
          <mxGeometry x="928" y="140" width="160" height="120" as="geometry">
            <mxRectangle x="-770" y="140" width="50" height="40" as="alternateBounds" />
          </mxGeometry>
        </mxCell>
        <mxCell id="17" value="&lt;span style=&quot;font-size: 24px;&quot;&gt;&lt;b&gt;Nginx&lt;/b&gt;&lt;/span&gt;" style="text;html=1;align=center;verticalAlign=middle;resizable=0;points=[];autosize=1;strokeColor=none;fillColor=none;" vertex="1" parent="16">
          <mxGeometry x="35" y="40" width="90" height="40" as="geometry" />
        </mxCell>
        <mxCell id="18" value="" style="sketch=0;outlineConnect=0;fontColor=#232F3E;gradientColor=none;fillColor=#585450;strokeColor=none;dashed=0;verticalLabelPosition=bottom;verticalAlign=top;align=center;html=1;fontSize=12;fontStyle=0;aspect=fixed;pointerEvents=1;shape=mxgraph.aws4.container_1;" vertex="1" parent="16">
          <mxGeometry x="56" y="81" width="48" height="31" as="geometry" />
        </mxCell>
        <mxCell id="19" value="" style="swimlane;startSize=0;" vertex="1" parent="2">
          <mxGeometry x="1096" y="140" width="160" height="120" as="geometry">
            <mxRectangle x="-770" y="140" width="50" height="40" as="alternateBounds" />
          </mxGeometry>
        </mxCell>
        <mxCell id="20" value="&lt;span style=&quot;font-size: 24px;&quot;&gt;&lt;b&gt;NAS&lt;/b&gt;&lt;/span&gt;" style="text;html=1;align=center;verticalAlign=middle;resizable=0;points=[];autosize=1;strokeColor=none;fillColor=none;" vertex="1" parent="19">
          <mxGeometry x="45" y="40" width="70" height="40" as="geometry" />
        </mxCell>
        <mxCell id="21" style="edgeStyle=orthogonalEdgeStyle;rounded=0;orthogonalLoop=1;jettySize=auto;html=1;fontFamily=Helvetica;fontSize=12;fontColor=default;endArrow=none;endFill=0;flowAnimation=0;shadow=1;strokeWidth=1;strokeColor=#CC6600;" edge="1" parent="2" source="22">
          <mxGeometry relative="1" as="geometry">
            <mxPoint x="1330" y="411" as="targetPoint" />
          </mxGeometry>
        </mxCell>
        <mxCell id="22" value="" style="swimlane;startSize=0;strokeColor=#CC6600;" vertex="1" parent="2">
          <mxGeometry x="1264" y="140" width="160" height="120" as="geometry">
            <mxRectangle x="-770" y="140" width="50" height="40" as="alternateBounds" />
          </mxGeometry>
        </mxCell>
        <mxCell id="23" value="&lt;b style=&quot;&quot;&gt;&lt;font style=&quot;font-size: 22px;&quot;&gt;SafeCredential&lt;/font&gt;&lt;/b&gt;" style="text;html=1;align=center;verticalAlign=middle;resizable=0;points=[];autosize=1;strokeColor=none;fillColor=none;fontColor=#CC6600;" vertex="1" parent="22">
          <mxGeometry x="-10" y="40" width="180" height="40" as="geometry" />
        </mxCell>
        <mxCell id="24" value="" style="sketch=0;outlineConnect=0;fontColor=#232F3E;gradientColor=none;fillColor=#CC6600;strokeColor=none;dashed=0;verticalLabelPosition=bottom;verticalAlign=top;align=center;html=1;fontSize=12;fontStyle=0;aspect=fixed;pointerEvents=1;shape=mxgraph.aws4.container_1;" vertex="1" parent="22">
          <mxGeometry x="56" y="81" width="48" height="31" as="geometry" />
        </mxCell>
        <mxCell id="25" value="" style="swimlane;startSize=0;" vertex="1" parent="2">
          <mxGeometry x="1432" y="140" width="160" height="120" as="geometry">
            <mxRectangle x="-770" y="140" width="50" height="40" as="alternateBounds" />
          </mxGeometry>
        </mxCell>
        <mxCell id="26" value="&lt;span style=&quot;font-size: 24px;&quot;&gt;&lt;b&gt;BACKUP&lt;/b&gt;&lt;/span&gt;" style="text;html=1;align=center;verticalAlign=middle;resizable=0;points=[];autosize=1;strokeColor=none;fillColor=none;" vertex="1" parent="25">
          <mxGeometry x="15" y="40" width="130" height="40" as="geometry" />
        </mxCell>
        <mxCell id="27" value="" style="sketch=0;outlineConnect=0;fontColor=#232F3E;gradientColor=none;fillColor=#585450;strokeColor=none;dashed=0;verticalLabelPosition=bottom;verticalAlign=top;align=center;html=1;fontSize=12;fontStyle=0;aspect=fixed;pointerEvents=1;shape=mxgraph.aws4.container_1;" vertex="1" parent="25">
          <mxGeometry x="56" y="81" width="48" height="31" as="geometry" />
        </mxCell>
        <mxCell id="28" value="" style="sketch=0;pointerEvents=1;shadow=0;dashed=0;html=1;strokeColor=none;fillColor=#505050;labelPosition=center;verticalLabelPosition=bottom;outlineConnect=0;verticalAlign=top;align=center;shape=mxgraph.office.clouds.cloud;" vertex="1" parent="2">
          <mxGeometry x="361" y="370" width="124" height="70" as="geometry" />
        </mxCell>
        <mxCell id="29" value="" style="endArrow=none;html=1;rounded=0;strokeColor=#CC6600;" edge="1" parent="2" source="9">
          <mxGeometry width="50" height="50" relative="1" as="geometry">
            <mxPoint x="550" y="420" as="sourcePoint" />
            <mxPoint x="470" y="408" as="targetPoint" />
          </mxGeometry>
        </mxCell>
        <mxCell id="30" style="rounded=0;orthogonalLoop=1;jettySize=auto;html=1;strokeColor=default;jumpStyle=line;" edge="1" parent="2" source="38">
          <mxGeometry relative="1" as="geometry">
            <mxPoint x="110" y="396.65" as="targetPoint" />
            <mxPoint x="26" y="396.65" as="sourcePoint" />
          </mxGeometry>
        </mxCell>
        <mxCell id="31" value="ZTNA" style="swimlane;startSize=51;horizontal=1;containerType=tree;fontSize=30;" vertex="1" parent="2">
          <mxGeometry x="110" y="270" width="190" height="261" as="geometry" />
        </mxCell>
        <mxCell id="32" value="&lt;b style=&quot;&quot;&gt;&lt;font style=&quot;font-size: 24px;&quot;&gt;Controller&lt;/font&gt;&lt;/b&gt;" style="whiteSpace=wrap;html=1;treeFolding=1;treeMoving=1;newEdgeStyle={&quot;edgeStyle&quot;:&quot;elbowEdgeStyle&quot;,&quot;startArrow&quot;:&quot;none&quot;,&quot;endArrow&quot;:&quot;none&quot;};" vertex="1" parent="31">
          <mxGeometry x="8.5" y="60" width="173" height="50" as="geometry" />
        </mxCell>
        <mxCell id="33" value="" style="group" connectable="0" vertex="1" parent="31">
          <mxGeometry x="26" y="111" width="164" height="140" as="geometry" />
        </mxCell>
        <mxCell id="34" value="&lt;font style=&quot;font-size: 18px;&quot;&gt;Device security posture&lt;/font&gt;" style="whiteSpace=wrap;html=1;treeFolding=1;treeMoving=1;newEdgeStyle={&quot;edgeStyle&quot;:&quot;elbowEdgeStyle&quot;,&quot;startArrow&quot;:&quot;none&quot;,&quot;endArrow&quot;:&quot;none&quot;};" vertex="1" parent="33">
          <mxGeometry x="-13.12" y="93.33333333333334" width="164" height="46.66666666666667" as="geometry" />
        </mxCell>
        <mxCell id="35" value="&lt;font style=&quot;font-size: 18px;&quot;&gt;Contextual factors&lt;/font&gt;" style="whiteSpace=wrap;html=1;treeFolding=1;treeMoving=1;newEdgeStyle={&quot;edgeStyle&quot;:&quot;elbowEdgeStyle&quot;,&quot;startArrow&quot;:&quot;none&quot;,&quot;endArrow&quot;:&quot;none&quot;};" vertex="1" parent="33">
          <mxGeometry x="-13.12" y="46.66666666666667" width="164" height="46.66666666666667" as="geometry" />
        </mxCell>
        <mxCell id="36" value="&lt;font style=&quot;font-size: 18px;&quot;&gt;Multiple identidy providers&lt;/font&gt;" style="whiteSpace=wrap;html=1;treeFolding=1;treeMoving=1;newEdgeStyle={&quot;edgeStyle&quot;:&quot;elbowEdgeStyle&quot;,&quot;startArrow&quot;:&quot;none&quot;,&quot;endArrow&quot;:&quot;none&quot;};" vertex="1" parent="33">
          <mxGeometry x="-13.12" width="164" height="46.66666666666667" as="geometry" />
        </mxCell>
        <mxCell id="37" style="edgeStyle=elbowEdgeStyle;rounded=0;orthogonalLoop=1;jettySize=auto;html=1;startArrow=none;endArrow=none;exitX=1;exitY=0.5;exitDx=0;exitDy=0;shadow=1;strokeColor=#CC6600;" edge="1" parent="2" source="32" target="28">
          <mxGeometry relative="1" as="geometry" />
        </mxCell>
        <mxCell id="38" value="" style="sketch=0;pointerEvents=1;shadow=0;dashed=0;html=1;strokeColor=none;fillColor=#505050;labelPosition=center;verticalLabelPosition=bottom;verticalAlign=top;outlineConnect=0;align=center;shape=mxgraph.office.users.users;" vertex="1" parent="2">
          <mxGeometry y="372.12" width="56" height="50" as="geometry" />
        </mxCell>
        <mxCell id="40" style="edgeStyle=orthogonalEdgeStyle;rounded=0;orthogonalLoop=1;jettySize=auto;html=1;entryX=0;entryY=0.5;entryDx=0;entryDy=0;fontFamily=Helvetica;fontSize=12;fontColor=default;endArrow=none;endFill=0;shadow=1;" edge="1" parent="2" source="41" target="44">
          <mxGeometry relative="1" as="geometry" />
        </mxCell>
        <mxCell id="41" value="" style="rounded=0;whiteSpace=wrap;html=1;dashed=1;strokeWidth=2;strokeColor=#575757;" vertex="1" parent="2">
          <mxGeometry x="780" y="506.5" width="258" height="247" as="geometry" />
        </mxCell>
        <mxCell id="42" value="" style="swimlane;startSize=0;" vertex="1" parent="2">
          <mxGeometry x="809" y="530" width="200" height="200" as="geometry" />
        </mxCell>
        <mxCell id="43" value="&lt;b&gt;&lt;font style=&quot;font-size: 24px;&quot;&gt;TERRAFORM&lt;/font&gt;&lt;/b&gt;" style="text;html=1;align=center;verticalAlign=middle;resizable=0;points=[];autosize=1;strokeColor=none;fillColor=none;" vertex="1" parent="42">
          <mxGeometry x="10" y="80" width="180" height="40" as="geometry" />
        </mxCell>
        <mxCell id="44" value="" style="rounded=0;whiteSpace=wrap;html=1;dashed=1;strokeWidth=2;strokeColor=#575757;" vertex="1" parent="2">
          <mxGeometry x="1200" y="506.5" width="258" height="247" as="geometry" />
        </mxCell>
        <mxCell id="45" value="" style="swimlane;startSize=0;strokeColor=#CC6600;" vertex="1" parent="2">
          <mxGeometry x="1229" y="530" width="200" height="200" as="geometry" />
        </mxCell>
        <mxCell id="46" value="&lt;b&gt;&lt;font style=&quot;font-size: 24px;&quot;&gt;VAULT&lt;/font&gt;&lt;/b&gt;" style="text;html=1;align=center;verticalAlign=middle;resizable=0;points=[];autosize=1;strokeColor=none;fillColor=none;fontColor=#CC6600;" vertex="1" parent="45">
          <mxGeometry x="50" y="80" width="100" height="40" as="geometry" />
        </mxCell>
        <mxCell id="47" value="" style="sketch=0;pointerEvents=1;shadow=0;dashed=0;html=1;strokeColor=none;fillColor=#CC6600;labelPosition=center;verticalLabelPosition=bottom;verticalAlign=middle;outlineConnect=0;align=center;shape=mxgraph.office.security.management_role;fontFamily=Helvetica;fontSize=12;fontColor=#CC6600;" vertex="1" parent="45">
          <mxGeometry x="77.5" y="130" width="45" height="45" as="geometry" />
        </mxCell>
        <mxCell id="48" value="" style="sketch=0;pointerEvents=1;shadow=0;dashed=0;html=1;strokeColor=none;fillColor=#CC6600;aspect=fixed;labelPosition=center;verticalLabelPosition=bottom;verticalAlign=top;align=center;outlineConnect=0;shape=mxgraph.vvd.virtual_machine;rounded=0;strokeWidth=3;fontFamily=Helvetica;fontSize=12;fontColor=#CC6600;" vertex="1" parent="45">
          <mxGeometry x="72.5" y="20" width="50" height="50" as="geometry" />
        </mxCell>
        <mxCell id="49" value="&lt;p style=&quot;line-height: 100%;&quot;&gt;&lt;font style=&quot;font-size: 14px;&quot;&gt;network_ZTNA&lt;/font&gt;&lt;/p&gt;" style="text;strokeColor=none;fillColor=none;html=1;fontSize=22;fontStyle=1;verticalAlign=middle;align=left;strokeWidth=0;rotation=0;flipH=0;flipV=1;" vertex="1" parent="2">
          <mxGeometry x="780" y="468.5" width="180" height="40" as="geometry" />
        </mxCell>
        <mxCell id="51" value="" style="sketch=0;outlineConnect=0;fontColor=#232F3E;gradientColor=none;fillColor=#232F3D;strokeColor=none;dashed=0;verticalLabelPosition=bottom;verticalAlign=top;align=center;html=1;fontSize=12;fontStyle=0;aspect=fixed;pointerEvents=1;shape=mxgraph.aws4.traditional_server;" vertex="1" parent="2">
          <mxGeometry x="892.25" y="651" width="39.23" height="68" as="geometry" />
        </mxCell>
        <mxCell id="52" value="" style="sketch=0;outlineConnect=0;fontColor=#232F3E;gradientColor=none;fillColor=#585450;strokeColor=none;dashed=0;verticalLabelPosition=bottom;verticalAlign=top;align=center;html=1;fontSize=12;fontStyle=0;aspect=fixed;pointerEvents=1;shape=mxgraph.aws4.container_1;" vertex="1" parent="2">
          <mxGeometry x="816" y="221" width="48" height="31" as="geometry" />
        </mxCell>
        <mxCell id="53" value="" style="sketch=0;outlineConnect=0;fontColor=#232F3E;gradientColor=none;fillColor=#585450;strokeColor=none;dashed=0;verticalLabelPosition=bottom;verticalAlign=top;align=center;html=1;fontSize=12;fontStyle=0;aspect=fixed;pointerEvents=1;shape=mxgraph.aws4.container_1;" vertex="1" parent="2">
          <mxGeometry x="1152" y="221" width="48" height="31" as="geometry" />
        </mxCell>
        <mxCell id="50" value="&lt;p style=&quot;line-height: 100%;&quot;&gt;&lt;font style=&quot;font-size: 14px;&quot;&gt;network_ZTNA&lt;/font&gt;&lt;/p&gt;" style="text;strokeColor=none;fillColor=none;html=1;fontSize=22;fontStyle=1;verticalAlign=middle;align=left;strokeWidth=0;rotation=0;flipH=0;flipV=1;" vertex="1" parent="2">
          <mxGeometry x="1200" y="468.5" width="180" height="40" as="geometry" />
        </mxCell>
        <mxCell id="39" style="edgeStyle=orthogonalEdgeStyle;rounded=0;orthogonalLoop=1;jettySize=auto;html=1;entryX=0.5;entryY=0;entryDx=0;entryDy=0;fontFamily=Helvetica;fontSize=12;fontColor=default;endArrow=none;endFill=0;shadow=1;strokeWidth=1;strokeColor=#CC6600;" edge="1" parent="2" target="45">
          <mxGeometry relative="1" as="geometry">
            <mxPoint x="614.1666666666665" y="407.25" as="sourcePoint" />
            <mxPoint x="1329" y="504.5" as="targetPoint" />
            <Array as="points">
              <mxPoint x="1329" y="407" />
            </Array>
          </mxGeometry>
        </mxCell>
        <mxCell id="Z2EhY7OuJhBNqxv4GSIB-53" value="" style="shape=image;imageAspect=0;aspect=fixed;verticalLabelPosition=bottom;verticalAlign=top;image=data:image/png,iVBORw0KGgoAAAANSUhEUgAAANcAAAAXCAYAAACYldoBAAAAAXNSR0IArs4c6QAAAARnQU1BAACxjwv8YQUAAAAJcEhZcwAADsMAAA7DAcdvqGQAAApVSURBVHhe7Zt/TFTZFce/XZpMbBhjwtSmEMzOxCo1IUQjk66KhoGNOFJk1hXYIFCXsNkKBgILBgO7WIkTRXYhYjBLdcuwJOB0O+qWAXYZqI7DmsFoqE0XrWE2S+EPMiRWSM2YkvbMe/fNe/MD5MdgF51Pcpnz7nvz3r3n3nPuOfcNP3r8ryf/RYgQIYLO6jOum9WIK+llB1L2ounuKSSwo5ebQVRuK4GZk1e23+OtOdA2PuBkVfFVmPIiOXklkD7Li03FMHdkI4odrhZeY5+vBK6xIZhba1GQoUHNTVYZIsQK8UoZl/3TQlQ2Xof90QxcrC5EiJVi9RnX7lMYvmtnpQFaVh1i9ROV1yaO7bViqFj9auWVWrlChHiRSIzLBXOFGnHb+JJrnGL13jhNhZ5r1PohVks8dcDK5TP7oI4X76NOyURB/XWMTrPrPLiTcuG6alhZLY/0XA4MY6x60UzAkCXcR42iLlZNmEvEer74tmHpuMYGYajOR5ImQby/Jh9FzQMYfcou8sU1QfqrRmaqRvzOGxpkfnARFsc8QexGJaLou5b6Qmj3iM+qvOYIeugbEx2B6XtGVOaxNsZroD16EdbH7AJfWLt0Hj0kYFdGIer7JoLUNnGeqM/eBx7fRwfpfdcboh5q5nkW3xfJfN2zD5nVRgwH7I9kTlYP8n3Tz/8siXHJoM04RH95hnv64WSyyBSs3YJBRSL3YDyTaRIfyUQRl89MwTXLqgnXpAP29lroDtLk9TOwlw9n33EkHShBfdd9OB9LVE0Db205Dt1pGhhfJgdQ+ut00l8vRiZmWCXhmsFI/2WUHqyd2/D//QBN+ekobR/CuKBfepb5JI2HKbCDXCrjPR9iX34dzPdZG2dnMH77Mooy6jAsGXOOyV6uT+52jXr04ML0oyEYKtKRdIwcru93loHr7iVy7PnQk96nhceRHkz0rNxWB6sQmMHw+Rzs4voima/TUxjpqkPum5nQ35GMgy+zIzC4dW70f5ZU595h4fY05EYz+V4P+iaZLOC0wXyHyVuzkbWJyQvB2Qv95wG2WV8mng7gdOUAFudDKGI4dxwWf0+2MCYGYPk7k32w/8GIUSYHg+G+OfrmNKJ1QOqzydmWVs/bp2lbLfTXg2j8Dwdhn+N5I03nYJLMZZetAYWfzTMXZx3oONHs7zAEei6ifgE698m5NkObIrzHIO93w7vzTmsv7EyOS9FAwWSOtfTd4jPo/HM/7EJSautETXIEu4A830RwPenzodW1g7WFStN+Vk1oG8R6vgThXZFzAg5hQBTZMAwJ97bi1ledaCreixg5O+9hCs7vmYgI5F4S22S/0Q3T+WJot6xl5+ciAkkfXeX0bm+VvA8aG8c4E4PGlndh6Kf2DfWjRsPqCMe4ZGxvNouTT5GImitsTnzTjZYjm9mJ4Bs/wpTIaujm9fDVGWiFCTo7BLNNaN8EOs9f9ziJmCMXYLExfX9RhSThO34Ow4cwt847Yacxtl95X9x8GXNghIX+fhsaqoPZiGOyd2goCQnDEpGVKhoNN4k/bYM+LxExkeGe0BJrlNClbmcHxD8cwR/slWSsHTohzvYrAXJBRSSUYUx2tiN3P+UXRgqLaCTlCiUS8k6hs2IHu0AgAooNTCQdG97bh9x6I/e6APIIqHZm04pfPo/hR5CjMOLjA5Gc3mWx8Z7xA76DY4KJDPeL2sD9oZLVPv/4bCmGqfV9xK0jOSwc6ljRUEa//45JgPWG+JI/qeJ30G1kc0IWAfWxKhQI/lsyEZfPZhRd6UTl7gheD2TUZQWx/CnC/je2UtFK3/WQFxH9LvTH4qFYwx/KlGnQlybyB8Twt2KfvCGd0xh9fEAJGY23bGMitBvZKTJeJzMaP+PC+jRkJTNZGhpO9sPEQkLZW29Dyxok4sK4rR01RzORJCTW7hLw1xQvKWsSUXRiBzyL0yTlF3pK6PdQQr8nB5Wtgxj3c4aU6/62CmqPl53CcHsd96JbHa+hBLsd1rF5PCi2Q7s7nMkBCGJeo3ozESrBefjyjH3S5HJIIi5LhWRThys5aPEYvDgRl8/riFEykaH4meTXJEL7HGTQTMTYZT/nqT4xwE6Sf5ycK9Ly1bkSBVeEiKPNk1r5G5d7sFP3MlkMDZ03ejDMSeHQpQgbGQyKUQ35ydAea4TptgPOxSUdLxUqXQMs1xpQtj8Wcs8STkw/gLmxBNoDdbD6emvymC1fXuXDxnWSL83OUILdiKK30lFjm8/AfmD8h30+l7WQ+znpFWZ24XqUyf1i+EURwLiInbR6sfvyoSGFhF/f5yuiM5C5lRcFnH+qRf09vtHy5CqYblg9ecNwg2CoC2f6ZnfQtsXnZCETIDobJqEffkX0UL7Ioncg99Ql3PrGHce7DU3iUieNMPQE8IiySD5s7CfdUa7qNjSVYGe0mplaewPs3i4erxe1viUov9+LRJQnAQlH1qcBnuMpF6DzStyDi91mYxKtYutZGhOtFPOjreWwBGwXX+wVYli5FAIbV1g8MrPYknrvL7A+FHcJ4w4f8ntz/u1fmeERP/3FZkT9hGYFeYhR20UUnV5IWEj373NvfVJoea0a6WW9i9xxWzzmP1IyHbR4nzFmROnRRnTcodWbbT/LlGRoVZe8kn/nE6n3nEDHByw3c87w28KUqybkVcFQIcb/eDJN2lkdxG0VJuUMOk6UoMnmELesXTNwPhpCR30hSjt8EsJl8QzTwni6pmBvLUGpUdhOD0fyLpYfboiFWliQ7tWRE7yOkUlRs67HExjpa0flYYowWN1S+TH79EOVSkbU0ohRUN7w4RO2q+O7kcGzVu6OP/mOjDbnQN3Mic/hdfxyE01yLrmcgblCw37lPT/Wau+XwSK9KNomGrJ7N1C/mx0wVDGk4C6WENyug25nHS9zBOPX5c/guN0OCxU9qwmEMspbh8/+STrud+dnrCIQGyK9d2d/wChSDyPp7HFY3I7COYiWY1T4U16oipnA4X7hn456YbNBysNGaLc1soPNKLsWKGoYQOVONSrZkRfbS1AgRFts4ehgid+4qRaZVPzZu+yf1gVeudxEp3jCv9GHbEImpyApQIwc904+YuZKdBVKRAUMXSOh+43EM0uRxSJJE/x/bYhKO4yEudr5gpDvb8DJZGkytgAUZPjVifyO22pgTSJONh9C1P9Z1xzr09BUn+blmFTvfYKanf6LRLCZ27gQAd070slP8XPGHANMucnvL5dDGyvZQVkXC21xA8xffoKsn7M6H+QpZ2A5d0hM4mXhiNlfDkP3JZTFLi+ZDIicJmnXBW6zQbECt0f022j5vAoFGrq/dGOC+qWI3Yuy81dhOSXZTeSIRGZTG2oK+NcYIjLIIwUd0oq6Eu1dQeTby2H+mvqVHQ+VVBfu1wu/SkPZ2Ta0CKlHUJBB5tER6W5jPHI/asOtrip/3YUpoaOxMLvfIcZGcNvpPLzOEwrK0fIFfY/VLpXQfyKHWMW8uH8aXQrzrFwhQoRYDiHjChFihQgZV4gQK8RrYWEh+woRIvgA/wOM5kAlPpbvdgAAAABJRU5ErkJggg==;" vertex="1" parent="2">
          <mxGeometry x="1278.57" y="270" width="130.87" height="14" as="geometry" />
        </mxCell>
      </root>
    </mxGraphModel>
  </diagram>
</mxfile>
